<?xml version="1.0" standalone="no"?>
<!DOCTYPE svg PUBLIC "-//W3C//DTD SVG 20010904//EN"
 "http://www.w3.org/TR/2001/REC-SVG-20010904/DTD/svg10.dtd">
<svg version="1.0" xmlns="http://www.w3.org/2000/svg"
 width="512.000000pt" height="512.000000pt" viewBox="0 0 512.000000 512.000000"
 preserveAspectRatio="xMidYMid meet">
<metadata>
Created by potrace 1.14, written by Peter Selinger 2001-2017
</metadata>
<g transform="translate(0.000000,512.000000) scale(0.100000,-0.100000)"
fill="#000000" stroke="none">
<path d="M477 5107 c-22 -7 -39 -33 -90 -135 -71 -142 -55 -129 -192 -146
-110 -13 -149 -24 -171 -49 -12 -14 -20 -36 -19 -49 1 -12 3 -28 4 -34 0 -7
46 -56 101 -110 63 -62 98 -104 96 -114 -3 -8 -7 -31 -10 -50 -3 -19 -8 -46
-11 -60 -9 -45 -15 -97 -17 -135 -1 -30 4 -43 26 -62 15 -12 39 -23 53 -23 14
0 79 28 145 62 l119 63 122 -63 c127 -65 158 -72 194 -47 33 23 36 68 14 199
-12 65 -21 122 -21 127 0 4 41 47 91 96 50 48 97 101 104 116 27 63 -13 111
-101 122 -27 3 -56 7 -64 10 -8 2 -42 7 -75 10 -32 4 -63 9 -67 12 -5 2 -35
57 -67 122 -33 64 -65 122 -73 128 -20 16 -60 21 -91 10z"/>
<path d="M1802 5103 c-41 -20 -81 -71 -91 -116 -10 -44 10 -121 40 -154 102
-111 299 -34 299 117 0 120 -141 207 -248 153z"/>
<path d="M4207 5095 c-24 -25 -27 -35 -27 -101 0 -61 4 -77 23 -99 31 -36 86
-38 122 -5 22 21 25 31 25 99 0 93 -17 120 -76 128 -33 4 -43 1 -67 -22z"/>
<path d="M3972 4853 c-41 -20 -56 -63 -38 -107 18 -43 59 -60 137 -54 52 4 66
9 86 32 29 34 29 77 0 111 -19 23 -32 27 -88 30 -44 2 -76 -2 -97 -12z"/>
<path d="M4414 4862 c-30 -4 -54 -33 -60 -74 -5 -27 -1 -40 19 -63 21 -25 33
-29 88 -33 81 -5 115 8 136 52 14 29 14 39 3 66 -7 17 -22 36 -34 42 -20 11
-109 17 -152 10z"/>
<path d="M4233 4685 c-43 -18 -53 -42 -53 -123 0 -59 3 -73 25 -96 32 -35 86
-36 120 -1 24 23 33 75 25 150 -5 57 -64 92 -117 70z"/>
<path d="M1935 4588 c-34 -30 -37 -55 -19 -151 34 -180 43 -291 39 -497 -2
-113 -5 -214 -8 -225 -2 -11 -8 -46 -11 -77 -4 -32 -10 -58 -12 -58 -3 0 -36
17 -72 39 -160 92 -358 180 -443 196 -28 5 -40 14 -52 40 -20 43 -55 54 -157
50 -159 -6 -292 -107 -327 -249 -10 -41 -10 -173 -1 -234 9 -58 6 -78 -36
-251 -25 -103 -46 -196 -46 -205 0 -19 -11 -21 -27 -5 -18 18 -64 19 -95 3
-51 -27 -50 -69 12 -339 11 -47 8 -66 -60 -340 -87 -356 -78 -328 -100 -322
-26 7 -78 -28 -86 -57 -3 -14 -3 -60 0 -103 18 -213 18 -210 -8 -316 -55 -222
-128 -523 -131 -537 -17 -81 -25 -96 -52 -98 -55 -4 -66 -32 -143 -349 -39
-164 -78 -320 -85 -346 -25 -91 2 -151 67 -151 18 0 209 67 423 148 215 82
417 159 450 171 98 37 210 79 385 145 91 35 192 73 225 85 33 13 173 65 310
118 138 52 426 161 640 242 215 81 449 170 520 197 72 27 183 69 247 92 65 24
133 55 153 70 137 105 164 299 79 568 -30 95 -56 124 -106 119 -12 -2 -28 22
-55 76 -20 43 -38 82 -38 87 0 9 143 9 225 0 225 -25 404 -61 580 -118 58 -19
117 -37 133 -40 51 -12 97 28 97 83 0 53 -27 73 -150 115 -268 89 -516 132
-818 142 -166 5 -178 7 -194 27 -9 12 -55 75 -102 139 l-84 117 24 15 c13 9
25 16 27 16 2 0 70 32 151 70 80 39 179 85 219 104 39 19 128 61 197 94 69 33
307 146 530 251 437 207 467 226 456 285 -7 37 -48 76 -81 76 -13 0 -77 -25
-142 -56 -65 -31 -158 -76 -208 -99 -49 -23 -144 -68 -210 -100 -66 -31 -160
-76 -210 -100 -80 -38 -248 -118 -635 -302 -63 -31 -142 -68 -175 -84 l-60
-28 -34 37 c-18 20 -70 77 -115 125 -44 48 -82 92 -84 96 -2 5 9 18 23 30 15
11 66 56 113 99 48 43 114 103 147 132 116 103 135 126 135 162 0 57 -57 100
-111 83 -12 -4 -47 -30 -78 -59 -119 -108 -238 -215 -299 -269 l-64 -56 -96
86 c-54 47 -152 129 -220 181 -83 65 -121 101 -118 111 9 33 26 128 32 186 3
33 8 69 11 80 6 32 6 398 -1 452 -3 26 -8 68 -11 93 -10 89 -36 224 -50 256
-23 57 -84 71 -130 32z"/>
<path d="M2587 4429 c-108 -25 -197 -137 -197 -248 0 -136 117 -252 253 -252
226 0 339 264 183 429 -58 63 -154 91 -239 71z"/>
<path d="M3226 4180 c-16 -3 -38 -18 -50 -33 -20 -27 -21 -40 -21 -268 l0
-239 28 -27 27 -27 245 -1 245 0 26 27 27 27 1 225 c1 124 -2 239 -7 256 -15
59 -35 63 -275 64 -120 1 -230 -1 -246 -4z"/>
<path d="M4570 3917 c-35 -18 -50 -53 -50 -120 0 -87 27 -126 88 -127 39 0 81
37 83 72 6 91 0 132 -23 154 -30 29 -67 37 -98 21z"/>
<path d="M4263 3788 c-28 -13 -47 -60 -39 -93 10 -39 101 -125 132 -125 55 0
93 37 94 89 0 29 -9 44 -55 88 -57 55 -85 64 -132 41z"/>
<path d="M4831 3758 c-62 -60 -72 -79 -65 -117 8 -39 47 -71 87 -71 23 0 43
12 84 53 45 46 53 60 53 91 0 48 -36 86 -82 86 -26 0 -43 -10 -77 -42z"/>
<path d="M4896 3478 c-15 -13 -29 -37 -32 -54 -5 -25 -1 -37 23 -62 28 -32 49
-36 149 -33 58 2 97 65 74 120 -15 38 -48 51 -125 51 -52 0 -69 -4 -89 -22z"/>
<path d="M4801 3240 c-56 -43 -42 -113 34 -175 82 -68 163 -33 156 67 0 10
-18 36 -38 59 -60 66 -109 82 -152 49z"/>
<path d="M4573 3150 c-41 -17 -56 -53 -51 -129 4 -76 20 -104 65 -116 34 -8
77 10 93 40 16 30 20 120 7 158 -9 27 -52 58 -79 56 -7 0 -23 -4 -35 -9z"/>
<path d="M4603 2031 c-56 -23 -88 -48 -117 -90 -89 -128 -47 -302 89 -374 53
-28 173 -30 226 -4 164 82 195 298 60 420 -69 63 -174 82 -258 48z"/>
<path d="M3865 1425 c-14 -13 -25 -34 -25 -47 1 -66 26 -86 145 -114 191 -46
365 -141 512 -281 l63 -59 -57 -17 c-130 -40 -262 -156 -302 -265 -38 -103
-22 -236 39 -322 90 -126 284 -177 423 -110 119 56 184 161 210 335 2 14 11 2
31 -39 49 -103 47 -249 -5 -356 -26 -54 -24 -96 6 -125 62 -63 136 -11 179
124 58 182 31 374 -73 525 -35 50 -113 130 -151 153 -14 8 -54 55 -88 103
-185 255 -453 435 -752 505 -94 21 -126 19 -155 -10z m795 -705 c34 -36 46
-95 36 -177 -18 -153 -132 -231 -252 -172 -66 31 -104 109 -90 184 12 64 97
148 180 177 72 25 94 23 126 -12z"/>
</g>
</svg>
